Screen
 
http://bayimg.com/MAPdDAAdC

Seeding Time 24/7

Don't Forget To Say Thanks If You Like My Post



-=Media Info=-


Format : Windows Media
File size : 512 MiB
Duration : 33mn 38s
Overall bit rate : 2 127 Kbps
Maximum Overall bit rate : 2 096 Kbps
Encoded date : UTC 1970-01-01 00:00:00.000

Video
ID : 1
Format : WMV2
Codec ID : WMV2
Codec ID/Info : Windows Media Video 8
Description of the codec : wmv2
Duration : 33mn 38s
Bit rate : 1 938 Kbps
Width : 720 pixels
Height : 400 pixels
Display aspect ratio : 16:9
Frame rate : 29.970 fps
Bit depth : 8 bits
Bits/(Pixel*Frame) : 0.225
Stream size : 466 MiB (91%)

Audio
ID : 2
Format : WMA
Format version : Version 2
Codec ID : 161
Codec ID/Info : Windows Media Audio
Description of the codec : Windows Media Audio V8
Duration : 33mn 38s
Bit rate : 96.0 Kbps
Channel(s) : 2 channels
Sampling rate : 44.1 KHz
Bit depth : 16 bits
Stream size : 23.1 MiB (5%)